<?xml version="1.0" standalone="no"?>
<!DOCTYPE svg PUBLIC "-//W3C//DTD SVG 20010904//EN"
 "http://www.w3.org/TR/2001/REC-SVG-20010904/DTD/svg10.dtd">
<svg version="1.0" xmlns="http://www.w3.org/2000/svg"
 width="590.000000pt" height="590.000000pt" viewBox="0 0 590.000000 590.000000"
 preserveAspectRatio="xMidYMid meet">
<metadata>
Created by potrace 1.14, written by Peter Selinger 2001-2017
</metadata>
<g transform="translate(0.000000,590.000000) scale(0.100000,-0.100000)"
fill="#000000" stroke="none">
<path d="M3538 5312 l-588 -588 0 -1772 0 -1772 43 0 c100 -1 864 -1 995 0
l142 0 0 1770 0 1770 63 0 c34 1 299 1 590 1 l527 0 0 589 0 590 -592 0 -593
0 -587 -588z"/>
<path d="M1180 2956 l0 -1771 -295 0 -295 0 0 -590 0 -591 885 0 885 0 0 36
c1 45 1 4638 0 4666 l0 22 -590 0 -590 0 0 -1772z"/>
</g>
</svg>
